<svg viewBox="0 0 1200 575" xmlns="http://www.w3.org/2000/svg" fill="none">
  <g fill="#9FB4D8">
    <circle cx="292" cy="132" r="2.4" />
    <circle cx="308" cy="132" r="2.4" />
    <circle cx="324" cy="132" r="2.4" />
    <circle cx="340" cy="132" r="2.4" />
    <circle cx="356" cy="132" r="2.4" />
    <circle cx="276" cy="148" r="2.4" />
    <circle cx="292" cy="148" r="2.4" />
    <circle cx="308" cy="148" r="2.4" />
    <circle cx="324" cy="148" r="2.4" />
    <circle cx="340" cy="148" r="2.4" />
    <circle cx="356" cy="148" r="2.4" />
    <circle cx="372" cy="148" r="2.4" />
    <circle cx="836" cy="148" r="2.4" />
    <circle cx="852" cy="148" r="2.4" />
    <circle cx="868" cy="148" r="2.4" />
    <circle cx="884" cy="148" r="2.4" />
    <circle cx="900" cy="148" r="2.4" />
    <circle cx="916" cy="148" r="2.4" />
    <circle cx="932" cy="148" r="2.4" />
    <circle cx="260" cy="164" r="2.4" />
    <circle cx="276" cy="164" r="2.4" />
    <circle cx="292" cy="164" r="2.4" />
    <circle cx="308" cy="164" r="2.4" />
    <circle cx="324" cy="164" r="2.4" />
    <circle cx="340" cy="164" r="2.4" />
    <circle cx="356" cy="164" r="2.4" />
    <circle cx="372" cy="164" r="2.4" />
    <circle cx="388" cy="164" r="2.4" />
    <circle cx="804" cy="164" r="2.4" />
    <circle cx="820" cy="164" r="2.4" />
    <circle cx="836" cy="164" r="2.4" />
    <circle cx="852" cy="164" r="2.4" />
    <circle cx="868" cy="164" r="2.4" />
    <circle cx="884" cy="164" r="2.4" />
    <circle cx="900" cy="164" r="2.4" />
    <circle cx="916" cy="164" r="2.4" />
    <circle cx="932" cy="164" r="2.4" />
    <circle cx="948" cy="164" r="2.4" />
    <circle cx="964" cy="164" r="2.4" />
    <circle cx="244" cy="180" r="2.4" />
    <circle cx="260" cy="180" r="2.4" />
    <circle cx="276" cy="180" r="2.4" />
    <circle cx="292" cy="180" r="2.4" />
    <circle cx="308" cy="180" r="2.4" />
    <circle cx="324" cy="180" r="2.4" />
    <circle cx="340" cy="180" r="2.4" />
    <circle cx="356" cy="180" r="2.4" />
    <circle cx="372" cy="180" r="2.4" />
    <circle cx="388" cy="180" r="2.4" />
    <circle cx="772" cy="180" r="2.4" />
    <circle cx="788" cy="180" r="2.4" />
    <circle cx="804" cy="180" r="2.4" />
    <circle cx="820" cy="180" r="2.4" />
    <circle cx="836" cy="180" r="2.4" />
    <circle cx="852" cy="180" r="2.4" />
    <circle cx="868" cy="180" r="2.4" />
    <circle cx="884" cy="180" r="2.4" />
    <circle cx="900" cy="180" r="2.4" />
    <circle cx="916" cy="180" r="2.4" />
    <circle cx="932" cy="180" r="2.4" />
    <circle cx="948" cy="180" r="2.4" />
    <circle cx="964" cy="180" r="2.4" />
    <circle cx="980" cy="180" r="2.4" />
    <circle cx="244" cy="196" r="2.4" />
    <circle cx="260" cy="196" r="2.4" />
    <circle cx="276" cy="196" r="2.4" />
    <circle cx="292" cy="196" r="2.4" />
    <circle cx="308" cy="196" r="2.4" />
    <circle cx="324" cy="196" r="2.4" />
    <circle cx="340" cy="196" r="2.4" />
    <circle cx="356" cy="196" r="2.4" />
    <circle cx="372" cy="196" r="2.4" />
    <circle cx="388" cy="196" r="2.4" />
    <circle cx="404" cy="196" r="2.4" />
    <circle cx="596" cy="196" r="2.4" />
    <circle cx="612" cy="196" r="2.4" />
    <circle cx="628" cy="196" r="2.4" />
    <circle cx="756" cy="196" r="2.4" />
    <circle cx="772" cy="196" r="2.4" />
    <circle cx="788" cy="196" r="2.4" />
    <circle cx="804" cy="196" r="2.4" />
    <circle cx="820" cy="196" r="2.4" />
    <circle cx="836" cy="196" r="2.4" />
    <circle cx="852" cy="196" r="2.4" />
    <circle cx="868" cy="196" r="2.4" />
    <circle cx="884" cy="196" r="2.4" />
    <circle cx="900" cy="196" r="2.4" />
    <circle cx="916" cy="196" r="2.4" />
    <circle cx="932" cy="196" r="2.4" />
    <circle cx="948" cy="196" r="2.4" />
    <circle cx="964" cy="196" r="2.4" />
    <circle cx="980" cy="196" r="2.4" />
    <circle cx="996" cy="196" r="2.4" />
    <circle cx="244" cy="212" r="2.4" />
    <circle cx="260" cy="212" r="2.4" />
    <circle cx="276" cy="212" r="2.4" />
    <circle cx="292" cy="212" r="2.4" />
    <circle cx="308" cy="212" r="2.4" />
    <circle cx="324" cy="212" r="2.4" />
    <circle cx="340" cy="212" r="2.4" />
    <circle cx="356" cy="212" r="2.4" />
    <circle cx="372" cy="212" r="2.4" />
    <circle cx="388" cy="212" r="2.4" />
    <circle cx="404" cy="212" r="2.4" />
    <circle cx="580" cy="212" r="2.4" />
    <circle cx="596" cy="212" r="2.4" />
    <circle cx="612" cy="212" r="2.4" />
    <circle cx="628" cy="212" r="2.4" />
    <circle cx="644" cy="212" r="2.4" />
    <circle cx="740" cy="212" r="2.4" />
    <circle cx="756" cy="212" r="2.4" />
    <circle cx="772" cy="212" r="2.4" />
    <circle cx="788" cy="212" r="2.4" />
    <circle cx="804" cy="212" r="2.4" />
    <circle cx="820" cy="212" r="2.4" />
    <circle cx="836" cy="212" r="2.4" />
    <circle cx="852" cy="212" r="2.4" />
    <circle cx="868" cy="212" r="2.4" />
    <circle cx="884" cy="212" r="2.4" />
    <circle cx="900" cy="212" r="2.4" />
    <circle cx="916" cy="212" r="2.4" />
    <circle cx="932" cy="212" r="2.4" />
    <circle cx="948" cy="212" r="2.4" />
    <circle cx="964" cy="212" r="2.4" />
    <circle cx="980" cy="212" r="2.4" />
    <circle cx="996" cy="212" r="2.4" />
    <circle cx="1012" cy="212" r="2.4" />
    <circle cx="228" cy="228" r="2.4" />
    <circle cx="244" cy="228" r="2.4" />
    <circle cx="260" cy="228" r="2.4" />
    <circle cx="276" cy="228" r="2.4" />
    <circle cx="292" cy="228" r="2.4" />
    <circle cx="308" cy="228" r="2.4" />
    <circle cx="324" cy="228" r="2.4" />
    <circle cx="340" cy="228" r="2.4" />
    <circle cx="356" cy="228" r="2.4" />
    <circle cx="372" cy="228" r="2.4" />
    <circle cx="388" cy="228" r="2.4" />
    <circle cx="404" cy="228" r="2.4" />
    <circle cx="564" cy="228" r="2.4" />
    <circle cx="580" cy="228" r="2.4" />
    <circle cx="596" cy="228" r="2.4" />
    <circle cx="612" cy="228" r="2.4" />
    <circle cx="628" cy="228" r="2.4" />
    <circle cx="644" cy="228" r="2.4" />
    <circle cx="660" cy="228" r="2.4" />
    <circle cx="740" cy="228" r="2.4" />
    <circle cx="756" cy="228" r="2.4" />
    <circle cx="772" cy="228" r="2.4" />
    <circle cx="788" cy="228" r="2.4" />
    <circle cx="804" cy="228" r="2.4" />
    <circle cx="820" cy="228" r="2.4" />
    <circle cx="836" cy="228" r="2.4" />
    <circle cx="852" cy="228" r="2.4" />
    <circle cx="868" cy="228" r="2.4" />
    <circle cx="884" cy="228" r="2.4" />
    <circle cx="900" cy="228" r="2.4" />
    <circle cx="916" cy="228" r="2.4" />
    <circle cx="932" cy="228" r="2.4" />
    <circle cx="948" cy="228" r="2.4" />
    <circle cx="964" cy="228" r="2.4" />
    <circle cx="980" cy="228" r="2.4" />
    <circle cx="996" cy="228" r="2.4" />
    <circle cx="1012" cy="228" r="2.4" />
    <circle cx="1028" cy="228" r="2.4" />
    <circle cx="228" cy="244" r="2.4" />
    <circle cx="244" cy="244" r="2.4" />
    <circle cx="260" cy="244" r="2.4" />
    <circle cx="276" cy="244" r="2.4" />
    <circle cx="292" cy="244" r="2.4" />
    <circle cx="308" cy="244" r="2.4" />
    <circle cx="324" cy="244" r="2.4" />
    <circle cx="340" cy="244" r="2.4" />
    <circle cx="356" cy="244" r="2.4" />
    <circle cx="372" cy="244" r="2.4" />
    <circle cx="388" cy="244" r="2.4" />
    <circle cx="404" cy="244" r="2.4" />
    <circle cx="564" cy="244" r="2.4" />
    <circle cx="580" cy="244" r="2.4" />
    <circle cx="596" cy="244" r="2.4" />
    <circle cx="612" cy="244" r="2.4" />
    <circle cx="628" cy="244" r="2.4" />
    <circle cx="644" cy="244" r="2.4" />
    <circle cx="660" cy="244" r="2.4" />
    <circle cx="676" cy="244" r="2.4" />
    <circle cx="692" cy="244" r="2.4" />
    <circle cx="708" cy="244" r="2.4" />
    <circle cx="724" cy="244" r="2.4" />
    <circle cx="740" cy="244" r="2.4" />
    <circle cx="756" cy="244" r="2.4" />
    <circle cx="772" cy="244" r="2.4" />
    <circle cx="788" cy="244" r="2.4" />
    <circle cx="804" cy="244" r="2.4" />
    <circle cx="820" cy="244" r="2.4" />
    <circle cx="836" cy="244" r="2.4" />
    <circle cx="852" cy="244" r="2.4" />
    <circle cx="868" cy="244" r="2.4" />
    <circle cx="884" cy="244" r="2.4" />
    <circle cx="900" cy="244" r="2.4" />
    <circle cx="916" cy="244" r="2.4" />
    <circle cx="932" cy="244" r="2.4" />
    <circle cx="948" cy="244" r="2.4" />
    <circle cx="964" cy="244" r="2.4" />
    <circle cx="980" cy="244" r="2.4" />
    <circle cx="996" cy="244" r="2.4" />
    <circle cx="1012" cy="244" r="2.4" />
    <circle cx="1028" cy="244" r="2.4" />
    <circle cx="228" cy="260" r="2.4" />
    <circle cx="244" cy="260" r="2.4" />
    <circle cx="260" cy="260" r="2.4" />
    <circle cx="276" cy="260" r="2.4" />
    <circle cx="292" cy="260" r="2.4" />
    <circle cx="308" cy="260" r="2.4" />
    <circle cx="324" cy="260" r="2.4" />
    <circle cx="340" cy="260" r="2.4" />
    <circle cx="356" cy="260" r="2.4" />
    <circle cx="372" cy="260" r="2.4" />
    <circle cx="388" cy="260" r="2.4" />
    <circle cx="404" cy="260" r="2.4" />
    <circle cx="548" cy="260" r="2.4" />
    <circle cx="564" cy="260" r="2.4" />
    <circle cx="580" cy="260" r="2.4" />
    <circle cx="596" cy="260" r="2.4" />
    <circle cx="612" cy="260" r="2.4" />
    <circle cx="628" cy="260" r="2.4" />
    <circle cx="644" cy="260" r="2.4" />
    <circle cx="660" cy="260" r="2.4" />
    <circle cx="676" cy="260" r="2.4" />
    <circle cx="692" cy="260" r="2.4" />
    <circle cx="708" cy="260" r="2.4" />
    <circle cx="724" cy="260" r="2.4" />
    <circle cx="740" cy="260" r="2.4" />
    <circle cx="756" cy="260" r="2.4" />
    <circle cx="772" cy="260" r="2.4" />
    <circle cx="788" cy="260" r="2.4" />
    <circle cx="804" cy="260" r="2.4" />
    <circle cx="820" cy="260" r="2.4" />
    <circle cx="836" cy="260" r="2.4" />
    <circle cx="852" cy="260" r="2.4" />
    <circle cx="868" cy="260" r="2.4" />
    <circle cx="884" cy="260" r="2.4" />
    <circle cx="900" cy="260" r="2.4" />
    <circle cx="916" cy="260" r="2.4" />
    <circle cx="932" cy="260" r="2.4" />
    <circle cx="948" cy="260" r="2.4" />
    <circle cx="964" cy="260" r="2.4" />
    <circle cx="980" cy="260" r="2.4" />
    <circle cx="996" cy="260" r="2.4" />
    <circle cx="1012" cy="260" r="2.4" />
    <circle cx="1028" cy="260" r="2.4" />
    <circle cx="1044" cy="260" r="2.4" />
    <circle cx="228" cy="276" r="2.4" />
    <circle cx="244" cy="276" r="2.4" />
    <circle cx="260" cy="276" r="2.4" />
    <circle cx="276" cy="276" r="2.4" />
    <circle cx="292" cy="276" r="2.4" />
    <circle cx="308" cy="276" r="2.4" />
    <circle cx="324" cy="276" r="2.4" />
    <circle cx="340" cy="276" r="2.4" />
    <circle cx="356" cy="276" r="2.4" />
    <circle cx="372" cy="276" r="2.4" />
    <circle cx="388" cy="276" r="2.4" />
    <circle cx="404" cy="276" r="2.4" />
    <circle cx="548" cy="276" r="2.4" />
    <circle cx="564" cy="276" r="2.4" />
    <circle cx="580" cy="276" r="2.4" />
    <circle cx="596" cy="276" r="2.4" />
    <circle cx="612" cy="276" r="2.4" />
    <circle cx="628" cy="276" r="2.4" />
    <circle cx="644" cy="276" r="2.4" />
    <circle cx="660" cy="276" r="2.4" />
    <circle cx="676" cy="276" r="2.4" />
    <circle cx="692" cy="276" r="2.4" />
    <circle cx="708" cy="276" r="2.4" />
    <circle cx="724" cy="276" r="2.4" />
    <circle cx="740" cy="276" r="2.4" />
    <circle cx="756" cy="276" r="2.4" />
    <circle cx="772" cy="276" r="2.4" />
    <circle cx="788" cy="276" r="2.4" />
    <circle cx="804" cy="276" r="2.4" />
    <circle cx="820" cy="276" r="2.4" />
    <circle cx="836" cy="276" r="2.4" />
    <circle cx="852" cy="276" r="2.4" />
    <circle cx="868" cy="276" r="2.4" />
    <circle cx="884" cy="276" r="2.4" />
    <circle cx="900" cy="276" r="2.4" />
    <circle cx="916" cy="276" r="2.4" />
    <circle cx="932" cy="276" r="2.4" />
    <circle cx="948" cy="276" r="2.4" />
    <circle cx="964" cy="276" r="2.4" />
    <circle cx="980" cy="276" r="2.4" />
    <circle cx="996" cy="276" r="2.4" />
    <circle cx="1012" cy="276" r="2.4" />
    <circle cx="1028" cy="276" r="2.4" />
    <circle cx="1044" cy="276" r="2.4" />
    <circle cx="244" cy="292" r="2.4" />
    <circle cx="260" cy="292" r="2.4" />
    <circle cx="276" cy="292" r="2.4" />
    <circle cx="292" cy="292" r="2.4" />
    <circle cx="308" cy="292" r="2.4" />
    <circle cx="324" cy="292" r="2.4" />
    <circle cx="340" cy="292" r="2.4" />
    <circle cx="356" cy="292" r="2.4" />
    <circle cx="372" cy="292" r="2.4" />
    <circle cx="388" cy="292" r="2.4" />
    <circle cx="404" cy="292" r="2.4" />
    <circle cx="548" cy="292" r="2.4" />
    <circle cx="564" cy="292" r="2.4" />
    <circle cx="580" cy="292" r="2.4" />
    <circle cx="596" cy="292" r="2.4" />
    <circle cx="612" cy="292" r="2.4" />
    <circle cx="628" cy="292" r="2.4" />
    <circle cx="644" cy="292" r="2.4" />
    <circle cx="660" cy="292" r="2.4" />
    <circle cx="676" cy="292" r="2.4" />
    <circle cx="692" cy="292" r="2.4" />
    <circle cx="708" cy="292" r="2.4" />
    <circle cx="724" cy="292" r="2.4" />
    <circle cx="740" cy="292" r="2.4" />
    <circle cx="756" cy="292" r="2.4" />
    <circle cx="772" cy="292" r="2.4" />
    <circle cx="788" cy="292" r="2.4" />
    <circle cx="804" cy="292" r="2.4" />
    <circle cx="820" cy="292" r="2.4" />
    <circle cx="836" cy="292" r="2.4" />
    <circle cx="852" cy="292" r="2.4" />
    <circle cx="868" cy="292" r="2.4" />
    <circle cx="884" cy="292" r="2.4" />
    <circle cx="900" cy="292" r="2.4" />
    <circle cx="916" cy="292" r="2.4" />
    <circle cx="932" cy="292" r="2.4" />
    <circle cx="948" cy="292" r="2.4" />
    <circle cx="964" cy="292" r="2.4" />
    <circle cx="980" cy="292" r="2.4" />
    <circle cx="996" cy="292" r="2.4" />
    <circle cx="1012" cy="292" r="2.4" />
    <circle cx="1028" cy="292" r="2.4" />
    <circle cx="1044" cy="292" r="2.4" />
    <circle cx="244" cy="308" r="2.4" />
    <circle cx="260" cy="308" r="2.4" />
    <circle cx="276" cy="308" r="2.4" />
    <circle cx="292" cy="308" r="2.4" />
    <circle cx="308" cy="308" r="2.4" />
    <circle cx="324" cy="308" r="2.4" />
    <circle cx="340" cy="308" r="2.4" />
    <circle cx="356" cy="308" r="2.4" />
    <circle cx="372" cy="308" r="2.4" />
    <circle cx="388" cy="308" r="2.4" />
    <circle cx="404" cy="308" r="2.4" />
    <circle cx="548" cy="308" r="2.4" />
    <circle cx="564" cy="308" r="2.4" />
    <circle cx="580" cy="308" r="2.4" />
    <circle cx="596" cy="308" r="2.4" />
    <circle cx="612" cy="308" r="2.4" />
    <circle cx="628" cy="308" r="2.4" />
    <circle cx="644" cy="308" r="2.4" />
    <circle cx="660" cy="308" r="2.4" />
    <circle cx="676" cy="308" r="2.4" />
    <circle cx="692" cy="308" r="2.4" />
    <circle cx="708" cy="308" r="2.4" />
    <circle cx="724" cy="308" r="2.4" />
    <circle cx="740" cy="308" r="2.4" />
    <circle cx="756" cy="308" r="2.4" />
    <circle cx="772" cy="308" r="2.4" />
    <circle cx="788" cy="308" r="2.4" />
    <circle cx="804" cy="308" r="2.4" />
    <circle cx="820" cy="308" r="2.4" />
    <circle cx="836" cy="308" r="2.4" />
    <circle cx="852" cy="308" r="2.4" />
    <circle cx="868" cy="308" r="2.4" />
    <circle cx="884" cy="308" r="2.4" />
    <circle cx="900" cy="308" r="2.4" />
    <circle cx="916" cy="308" r="2.4" />
    <circle cx="932" cy="308" r="2.4" />
    <circle cx="948" cy="308" r="2.4" />
    <circle cx="964" cy="308" r="2.4" />
    <circle cx="980" cy="308" r="2.4" />
    <circle cx="996" cy="308" r="2.4" />
    <circle cx="1012" cy="308" r="2.4" />
    <circle cx="1028" cy="308" r="2.4" />
    <circle cx="1044" cy="308" r="2.4" />
    <circle cx="244" cy="324" r="2.4" />
    <circle cx="260" cy="324" r="2.4" />
    <circle cx="276" cy="324" r="2.4" />
    <circle cx="292" cy="324" r="2.4" />
    <circle cx="308" cy="324" r="2.4" />
    <circle cx="324" cy="324" r="2.4" />
    <circle cx="340" cy="324" r="2.4" />
    <circle cx="356" cy="324" r="2.4" />
    <circle cx="372" cy="324" r="2.4" />
    <circle cx="388" cy="324" r="2.4" />
    <circle cx="548" cy="324" r="2.4" />
    <circle cx="564" cy="324" r="2.4" />
    <circle cx="580" cy="324" r="2.4" />
    <circle cx="596" cy="324" r="2.4" />
    <circle cx="612" cy="324" r="2.4" />
    <circle cx="628" cy="324" r="2.4" />
    <circle cx="644" cy="324" r="2.4" />
    <circle cx="660" cy="324" r="2.4" />
    <circle cx="676" cy="324" r="2.4" />
    <circle cx="692" cy="324" r="2.4" />
    <circle cx="708" cy="324" r="2.4" />
    <circle cx="724" cy="324" r="2.4" />
    <circle cx="740" cy="324" r="2.4" />
    <circle cx="756" cy="324" r="2.4" />
    <circle cx="772" cy="324" r="2.4" />
    <circle cx="788" cy="324" r="2.4" />
    <circle cx="804" cy="324" r="2.4" />
    <circle cx="820" cy="324" r="2.4" />
    <circle cx="836" cy="324" r="2.4" />
    <circle cx="852" cy="324" r="2.4" />
    <circle cx="868" cy="324" r="2.4" />
    <circle cx="884" cy="324" r="2.4" />
    <circle cx="900" cy="324" r="2.4" />
    <circle cx="916" cy="324" r="2.4" />
    <circle cx="932" cy="324" r="2.4" />
    <circle cx="948" cy="324" r="2.4" />
    <circle cx="964" cy="324" r="2.4" />
    <circle cx="980" cy="324" r="2.4" />
    <circle cx="996" cy="324" r="2.4" />
    <circle cx="1012" cy="324" r="2.4" />
    <circle cx="1028" cy="324" r="2.4" />
    <circle cx="1044" cy="324" r="2.4" />
    <circle cx="260" cy="340" r="2.4" />
    <circle cx="276" cy="340" r="2.4" />
    <circle cx="292" cy="340" r="2.4" />
    <circle cx="308" cy="340" r="2.4" />
    <circle cx="324" cy="340" r="2.4" />
    <circle cx="340" cy="340" r="2.4" />
    <circle cx="356" cy="340" r="2.4" />
    <circle cx="372" cy="340" r="2.4" />
    <circle cx="388" cy="340" r="2.4" />
    <circle cx="548" cy="340" r="2.4" />
    <circle cx="564" cy="340" r="2.4" />
    <circle cx="580" cy="340" r="2.4" />
    <circle cx="596" cy="340" r="2.4" />
    <circle cx="612" cy="340" r="2.4" />
    <circle cx="628" cy="340" r="2.4" />
    <circle cx="644" cy="340" r="2.4" />
    <circle cx="660" cy="340" r="2.4" />
    <circle cx="676" cy="340" r="2.4" />
    <circle cx="692" cy="340" r="2.4" />
    <circle cx="708" cy="340" r="2.4" />
    <circle cx="724" cy="340" r="2.4" />
    <circle cx="740" cy="340" r="2.4" />
    <circle cx="756" cy="340" r="2.4" />
    <circle cx="772" cy="340" r="2.4" />
    <circle cx="788" cy="340" r="2.4" />
    <circle cx="804" cy="340" r="2.4" />
    <circle cx="820" cy="340" r="2.4" />
    <circle cx="836" cy="340" r="2.4" />
    <circle cx="852" cy="340" r="2.4" />
    <circle cx="868" cy="340" r="2.4" />
    <circle cx="884" cy="340" r="2.4" />
    <circle cx="900" cy="340" r="2.4" />
    <circle cx="916" cy="340" r="2.4" />
    <circle cx="932" cy="340" r="2.4" />
    <circle cx="948" cy="340" r="2.4" />
    <circle cx="964" cy="340" r="2.4" />
    <circle cx="980" cy="340" r="2.4" />
    <circle cx="996" cy="340" r="2.4" />
    <circle cx="1012" cy="340" r="2.4" />
    <circle cx="1028" cy="340" r="2.4" />
    <circle cx="1044" cy="340" r="2.4" />
    <circle cx="276" cy="356" r="2.4" />
    <circle cx="292" cy="356" r="2.4" />
    <circle cx="308" cy="356" r="2.4" />
    <circle cx="324" cy="356" r="2.4" />
    <circle cx="340" cy="356" r="2.4" />
    <circle cx="356" cy="356" r="2.4" />
    <circle cx="372" cy="356" r="2.4" />
    <circle cx="388" cy="356" r="2.4" />
    <circle cx="404" cy="356" r="2.4" />
    <circle cx="532" cy="356" r="2.4" />
    <circle cx="548" cy="356" r="2.4" />
    <circle cx="564" cy="356" r="2.4" />
    <circle cx="580" cy="356" r="2.4" />
    <circle cx="596" cy="356" r="2.4" />
    <circle cx="612" cy="356" r="2.4" />
    <circle cx="628" cy="356" r="2.4" />
    <circle cx="644" cy="356" r="2.4" />
    <circle cx="660" cy="356" r="2.4" />
    <circle cx="676" cy="356" r="2.4" />
    <circle cx="692" cy="356" r="2.4" />
    <circle cx="708" cy="356" r="2.4" />
    <circle cx="724" cy="356" r="2.4" />
    <circle cx="740" cy="356" r="2.4" />
    <circle cx="756" cy="356" r="2.4" />
    <circle cx="772" cy="356" r="2.4" />
    <circle cx="788" cy="356" r="2.4" />
    <circle cx="804" cy="356" r="2.4" />
    <circle cx="820" cy="356" r="2.4" />
    <circle cx="836" cy="356" r="2.4" />
    <circle cx="852" cy="356" r="2.4" />
    <circle cx="868" cy="356" r="2.4" />
    <circle cx="884" cy="356" r="2.4" />
    <circle cx="900" cy="356" r="2.4" />
    <circle cx="916" cy="356" r="2.4" />
    <circle cx="932" cy="356" r="2.4" />
    <circle cx="948" cy="356" r="2.4" />
    <circle cx="964" cy="356" r="2.4" />
    <circle cx="980" cy="356" r="2.4" />
    <circle cx="996" cy="356" r="2.4" />
    <circle cx="1012" cy="356" r="2.4" />
    <circle cx="1028" cy="356" r="2.4" />
    <circle cx="292" cy="372" r="2.4" />
    <circle cx="308" cy="372" r="2.4" />
    <circle cx="324" cy="372" r="2.4" />
    <circle cx="340" cy="372" r="2.4" />
    <circle cx="356" cy="372" r="2.4" />
    <circle cx="372" cy="372" r="2.4" />
    <circle cx="388" cy="372" r="2.4" />
    <circle cx="404" cy="372" r="2.4" />
    <circle cx="420" cy="372" r="2.4" />
    <circle cx="532" cy="372" r="2.4" />
    <circle cx="548" cy="372" r="2.4" />
    <circle cx="564" cy="372" r="2.4" />
    <circle cx="580" cy="372" r="2.4" />
    <circle cx="596" cy="372" r="2.4" />
    <circle cx="612" cy="372" r="2.4" />
    <circle cx="628" cy="372" r="2.4" />
    <circle cx="644" cy="372" r="2.4" />
    <circle cx="660" cy="372" r="2.4" />
    <circle cx="676" cy="372" r="2.4" />
    <circle cx="692" cy="372" r="2.4" />
    <circle cx="708" cy="372" r="2.4" />
    <circle cx="724" cy="372" r="2.4" />
    <circle cx="740" cy="372" r="2.4" />
    <circle cx="756" cy="372" r="2.4" />
    <circle cx="772" cy="372" r="2.4" />
    <circle cx="788" cy="372" r="2.4" />
    <circle cx="804" cy="372" r="2.4" />
    <circle cx="820" cy="372" r="2.4" />
    <circle cx="836" cy="372" r="2.4" />
    <circle cx="852" cy="372" r="2.4" />
    <circle cx="868" cy="372" r="2.4" />
    <circle cx="884" cy="372" r="2.4" />
    <circle cx="900" cy="372" r="2.4" />
    <circle cx="916" cy="372" r="2.4" />
    <circle cx="932" cy="372" r="2.4" />
    <circle cx="948" cy="372" r="2.4" />
    <circle cx="964" cy="372" r="2.4" />
    <circle cx="980" cy="372" r="2.4" />
    <circle cx="996" cy="372" r="2.4" />
    <circle cx="1012" cy="372" r="2.4" />
    <circle cx="1028" cy="372" r="2.4" />
    <circle cx="340" cy="388" r="2.4" />
    <circle cx="356" cy="388" r="2.4" />
    <circle cx="372" cy="388" r="2.4" />
    <circle cx="388" cy="388" r="2.4" />
    <circle cx="404" cy="388" r="2.4" />
    <circle cx="420" cy="388" r="2.4" />
    <circle cx="532" cy="388" r="2.4" />
    <circle cx="548" cy="388" r="2.4" />
    <circle cx="564" cy="388" r="2.4" />
    <circle cx="580" cy="388" r="2.4" />
    <circle cx="596" cy="388" r="2.4" />
    <circle cx="612" cy="388" r="2.4" />
    <circle cx="628" cy="388" r="2.4" />
    <circle cx="644" cy="388" r="2.4" />
    <circle cx="660" cy="388" r="2.4" />
    <circle cx="676" cy="388" r="2.4" />
    <circle cx="692" cy="388" r="2.4" />
    <circle cx="708" cy="388" r="2.4" />
    <circle cx="724" cy="388" r="2.4" />
    <circle cx="740" cy="388" r="2.4" />
    <circle cx="756" cy="388" r="2.4" />
    <circle cx="772" cy="388" r="2.4" />
    <circle cx="788" cy="388" r="2.4" />
    <circle cx="804" cy="388" r="2.4" />
    <circle cx="820" cy="388" r="2.4" />
    <circle cx="836" cy="388" r="2.4" />
    <circle cx="852" cy="388" r="2.4" />
    <circle cx="868" cy="388" r="2.4" />
    <circle cx="884" cy="388" r="2.4" />
    <circle cx="900" cy="388" r="2.4" />
    <circle cx="916" cy="388" r="2.4" />
    <circle cx="932" cy="388" r="2.4" />
    <circle cx="948" cy="388" r="2.4" />
    <circle cx="964" cy="388" r="2.4" />
    <circle cx="980" cy="388" r="2.4" />
    <circle cx="996" cy="388" r="2.4" />
    <circle cx="1012" cy="388" r="2.4" />
    <circle cx="324" cy="404" r="2.4" />
    <circle cx="340" cy="404" r="2.4" />
    <circle cx="356" cy="404" r="2.4" />
    <circle cx="372" cy="404" r="2.4" />
    <circle cx="388" cy="404" r="2.4" />
    <circle cx="404" cy="404" r="2.4" />
    <circle cx="420" cy="404" r="2.4" />
    <circle cx="436" cy="404" r="2.4" />
    <circle cx="532" cy="404" r="2.4" />
    <circle cx="548" cy="404" r="2.4" />
    <circle cx="564" cy="404" r="2.4" />
    <circle cx="580" cy="404" r="2.4" />
    <circle cx="596" cy="404" r="2.4" />
    <circle cx="612" cy="404" r="2.4" />
    <circle cx="628" cy="404" r="2.4" />
    <circle cx="644" cy="404" r="2.4" />
    <circle cx="660" cy="404" r="2.4" />
    <circle cx="676" cy="404" r="2.4" />
    <circle cx="692" cy="404" r="2.4" />
    <circle cx="708" cy="404" r="2.4" />
    <circle cx="724" cy="404" r="2.4" />
    <circle cx="740" cy="404" r="2.4" />
    <circle cx="756" cy="404" r="2.4" />
    <circle cx="772" cy="404" r="2.4" />
    <circle cx="788" cy="404" r="2.4" />
    <circle cx="804" cy="404" r="2.4" />
    <circle cx="820" cy="404" r="2.4" />
    <circle cx="836" cy="404" r="2.4" />
    <circle cx="852" cy="404" r="2.4" />
    <circle cx="868" cy="404" r="2.4" />
    <circle cx="884" cy="404" r="2.4" />
    <circle cx="900" cy="404" r="2.4" />
    <circle cx="916" cy="404" r="2.4" />
    <circle cx="932" cy="404" r="2.4" />
    <circle cx="948" cy="404" r="2.4" />
    <circle cx="964" cy="404" r="2.4" />
    <circle cx="980" cy="404" r="2.4" />
    <circle cx="996" cy="404" r="2.4" />
    <circle cx="324" cy="420" r="2.4" />
    <circle cx="340" cy="420" r="2.4" />
    <circle cx="356" cy="420" r="2.4" />
    <circle cx="372" cy="420" r="2.4" />
    <circle cx="388" cy="420" r="2.4" />
    <circle cx="404" cy="420" r="2.4" />
    <circle cx="420" cy="420" r="2.4" />
    <circle cx="436" cy="420" r="2.4" />
    <circle cx="548" cy="420" r="2.4" />
    <circle cx="564" cy="420" r="2.4" />
    <circle cx="580" cy="420" r="2.4" />
    <circle cx="596" cy="420" r="2.4" />
    <circle cx="612" cy="420" r="2.4" />
    <circle cx="628" cy="420" r="2.4" />
    <circle cx="644" cy="420" r="2.4" />
    <circle cx="660" cy="420" r="2.4" />
    <circle cx="676" cy="420" r="2.4" />
    <circle cx="692" cy="420" r="2.4" />
    <circle cx="708" cy="420" r="2.4" />
    <circle cx="724" cy="420" r="2.4" />
    <circle cx="740" cy="420" r="2.4" />
    <circle cx="756" cy="420" r="2.4" />
    <circle cx="772" cy="420" r="2.4" />
    <circle cx="788" cy="420" r="2.4" />
    <circle cx="804" cy="420" r="2.4" />
    <circle cx="820" cy="420" r="2.4" />
    <circle cx="836" cy="420" r="2.4" />
    <circle cx="852" cy="420" r="2.4" />
    <circle cx="868" cy="420" r="2.4" />
    <circle cx="884" cy="420" r="2.4" />
    <circle cx="900" cy="420" r="2.4" />
    <circle cx="916" cy="420" r="2.4" />
    <circle cx="932" cy="420" r="2.4" />
    <circle cx="948" cy="420" r="2.4" />
    <circle cx="964" cy="420" r="2.4" />
    <circle cx="980" cy="420" r="2.4" />
    <circle cx="324" cy="436" r="2.4" />
    <circle cx="340" cy="436" r="2.4" />
    <circle cx="356" cy="436" r="2.4" />
    <circle cx="372" cy="436" r="2.4" />
    <circle cx="388" cy="436" r="2.4" />
    <circle cx="404" cy="436" r="2.4" />
    <circle cx="420" cy="436" r="2.4" />
    <circle cx="436" cy="436" r="2.4" />
    <circle cx="548" cy="436" r="2.4" />
    <circle cx="564" cy="436" r="2.4" />
    <circle cx="580" cy="436" r="2.4" />
    <circle cx="596" cy="436" r="2.4" />
    <circle cx="612" cy="436" r="2.4" />
    <circle cx="628" cy="436" r="2.4" />
    <circle cx="644" cy="436" r="2.4" />
    <circle cx="660" cy="436" r="2.4" />
    <circle cx="676" cy="436" r="2.4" />
    <circle cx="692" cy="436" r="2.4" />
    <circle cx="708" cy="436" r="2.4" />
    <circle cx="724" cy="436" r="2.4" />
    <circle cx="740" cy="436" r="2.4" />
    <circle cx="756" cy="436" r="2.4" />
    <circle cx="772" cy="436" r="2.4" />
    <circle cx="804" cy="436" r="2.4" />
    <circle cx="820" cy="436" r="2.4" />
    <circle cx="836" cy="436" r="2.4" />
    <circle cx="852" cy="436" r="2.4" />
    <circle cx="868" cy="436" r="2.4" />
    <circle cx="884" cy="436" r="2.4" />
    <circle cx="900" cy="436" r="2.4" />
    <circle cx="916" cy="436" r="2.4" />
    <circle cx="932" cy="436" r="2.4" />
    <circle cx="948" cy="436" r="2.4" />
    <circle cx="964" cy="436" r="2.4" />
    <circle cx="980" cy="436" r="2.4" />
    <circle cx="996" cy="436" r="2.4" />
    <circle cx="1012" cy="436" r="2.4" />
    <circle cx="1028" cy="436" r="2.4" />
    <circle cx="324" cy="452" r="2.4" />
    <circle cx="340" cy="452" r="2.4" />
    <circle cx="356" cy="452" r="2.4" />
    <circle cx="372" cy="452" r="2.4" />
    <circle cx="388" cy="452" r="2.4" />
    <circle cx="404" cy="452" r="2.4" />
    <circle cx="420" cy="452" r="2.4" />
    <circle cx="436" cy="452" r="2.4" />
    <circle cx="548" cy="452" r="2.4" />
    <circle cx="564" cy="452" r="2.4" />
    <circle cx="580" cy="452" r="2.4" />
    <circle cx="596" cy="452" r="2.4" />
    <circle cx="612" cy="452" r="2.4" />
    <circle cx="628" cy="452" r="2.4" />
    <circle cx="644" cy="452" r="2.4" />
    <circle cx="660" cy="452" r="2.4" />
    <circle cx="676" cy="452" r="2.4" />
    <circle cx="692" cy="452" r="2.4" />
    <circle cx="708" cy="452" r="2.4" />
    <circle cx="724" cy="452" r="2.4" />
    <circle cx="740" cy="452" r="2.4" />
    <circle cx="756" cy="452" r="2.4" />
    <circle cx="772" cy="452" r="2.4" />
    <circle cx="836" cy="452" r="2.4" />
    <circle cx="852" cy="452" r="2.4" />
    <circle cx="868" cy="452" r="2.4" />
    <circle cx="884" cy="452" r="2.4" />
    <circle cx="900" cy="452" r="2.4" />
    <circle cx="916" cy="452" r="2.4" />
    <circle cx="932" cy="452" r="2.4" />
    <circle cx="948" cy="452" r="2.4" />
    <circle cx="964" cy="452" r="2.4" />
    <circle cx="980" cy="452" r="2.4" />
    <circle cx="996" cy="452" r="2.4" />
    <circle cx="1012" cy="452" r="2.4" />
    <circle cx="1028" cy="452" r="2.4" />
    <circle cx="1044" cy="452" r="2.4" />
    <circle cx="340" cy="468" r="2.4" />
    <circle cx="356" cy="468" r="2.4" />
    <circle cx="372" cy="468" r="2.4" />
    <circle cx="388" cy="468" r="2.4" />
    <circle cx="404" cy="468" r="2.4" />
    <circle cx="420" cy="468" r="2.4" />
    <circle cx="564" cy="468" r="2.4" />
    <circle cx="580" cy="468" r="2.4" />
    <circle cx="596" cy="468" r="2.4" />
    <circle cx="612" cy="468" r="2.4" />
    <circle cx="628" cy="468" r="2.4" />
    <circle cx="644" cy="468" r="2.4" />
    <circle cx="660" cy="468" r="2.4" />
    <circle cx="676" cy="468" r="2.4" />
    <circle cx="692" cy="468" r="2.4" />
    <circle cx="708" cy="468" r="2.4" />
    <circle cx="724" cy="468" r="2.4" />
    <circle cx="740" cy="468" r="2.4" />
    <circle cx="756" cy="468" r="2.4" />
    <circle cx="948" cy="468" r="2.4" />
    <circle cx="964" cy="468" r="2.4" />
    <circle cx="980" cy="468" r="2.4" />
    <circle cx="996" cy="468" r="2.4" />
    <circle cx="1012" cy="468" r="2.4" />
    <circle cx="1028" cy="468" r="2.4" />
    <circle cx="1044" cy="468" r="2.4" />
    <circle cx="340" cy="484" r="2.4" />
    <circle cx="356" cy="484" r="2.4" />
    <circle cx="372" cy="484" r="2.4" />
    <circle cx="388" cy="484" r="2.4" />
    <circle cx="404" cy="484" r="2.4" />
    <circle cx="420" cy="484" r="2.4" />
    <circle cx="580" cy="484" r="2.4" />
    <circle cx="596" cy="484" r="2.4" />
    <circle cx="612" cy="484" r="2.4" />
    <circle cx="628" cy="484" r="2.4" />
    <circle cx="644" cy="484" r="2.4" />
    <circle cx="660" cy="484" r="2.4" />
    <circle cx="676" cy="484" r="2.4" />
    <circle cx="692" cy="484" r="2.4" />
    <circle cx="708" cy="484" r="2.4" />
    <circle cx="724" cy="484" r="2.4" />
    <circle cx="740" cy="484" r="2.4" />
    <circle cx="948" cy="484" r="2.4" />
    <circle cx="964" cy="484" r="2.4" />
    <circle cx="980" cy="484" r="2.4" />
    <circle cx="996" cy="484" r="2.4" />
    <circle cx="1012" cy="484" r="2.4" />
    <circle cx="1028" cy="484" r="2.4" />
    <circle cx="1044" cy="484" r="2.4" />
    <circle cx="356" cy="500" r="2.4" />
    <circle cx="372" cy="500" r="2.4" />
    <circle cx="388" cy="500" r="2.4" />
    <circle cx="404" cy="500" r="2.4" />
    <circle cx="596" cy="500" r="2.4" />
    <circle cx="612" cy="500" r="2.4" />
    <circle cx="628" cy="500" r="2.4" />
    <circle cx="644" cy="500" r="2.4" />
    <circle cx="660" cy="500" r="2.4" />
    <circle cx="676" cy="500" r="2.4" />
    <circle cx="692" cy="500" r="2.4" />
    <circle cx="708" cy="500" r="2.4" />
    <circle cx="724" cy="500" r="2.4" />
    <circle cx="964" cy="500" r="2.4" />
    <circle cx="980" cy="500" r="2.4" />
    <circle cx="996" cy="500" r="2.4" />
    <circle cx="1012" cy="500" r="2.4" />
    <circle cx="1028" cy="500" r="2.4" />
    <circle cx="1044" cy="500" r="2.4" />
    <circle cx="372" cy="516" r="2.4" />
    <circle cx="388" cy="516" r="2.4" />
    <circle cx="612" cy="516" r="2.4" />
    <circle cx="628" cy="516" r="2.4" />
    <circle cx="644" cy="516" r="2.4" />
    <circle cx="660" cy="516" r="2.4" />
    <circle cx="676" cy="516" r="2.4" />
    <circle cx="692" cy="516" r="2.4" />
    <circle cx="708" cy="516" r="2.4" />
  </g>
</svg>
