<svg xmlns="http://www.w3.org/2000/svg" viewBox="0 0 64 64" width="64" height="64" role="img" aria-label="Python">
  <circle cx="32" cy="32" r="30" fill="#0B1E3D"/>
  <path d="M34 16 c-6 0-10 1-10 6 v5 h11 v3 H22 c-5 0-8 3-8 9 0 6 3 9 9 9 8 0 13-3 13-11 V22 c0-4 2-6 6-6 3 0 5 1 5 4 h3 c0-6-4-10-10-10 Z" fill="#3776AB"/>
  <path d="M30 48 c6 0 10-1 10-6 v-5 H29 v-3 h17 c5 0 8-3 8-9 0-6-3-9-9-9-8 0-13 3-13 11 v18 c0 4-2 6-6 6-3 0-5-1-5-4 h-3 c0 6 4 10 10 10 Z" fill="#FFD43B"/>
  <circle cx="25" cy="26" r="2" fill="#0B1E3D"/>
  <circle cx="39" cy="40" r="2" fill="#0B1E3D"/>
</svg>
