<svg xmlns="http://www.w3.org/2000/svg" width="1500" height="1500" viewBox="0 0 1500 1500" version="1.1">
	<path d="M -0 750.001 L -0 1500.001 750.250 1499.751 L 1500.500 1499.500 1500.751 749.750 L 1501.001 0 750.501 0 L 0 0 -0 750.001 M 0.497 750.500 C 0.497 1163, 0.611 1331.600, 0.750 1125.168 C 0.889 918.735, 0.889 581.235, 0.750 375.168 C 0.611 169.100, 0.497 338, 0.497 750.500 M 261.500 527.873 C 214.282 536.528, 176.378 565.201, 156.459 607.336 C 146.479 628.448, 143.511 642.243, 143.505 667.558 L 143.500 686.616 136 689.455 C 91.161 706.422, 55.277 749.651, 45.985 797.894 C 39.272 832.743, 45.805 871.046, 63.548 900.875 C 84.165 935.534, 114.498 958.284, 154.659 969.209 C 166.438 972.413, 166.623 972.430, 190 972.413 L 213.500 972.395 227.500 968.664 C 246.790 963.524, 264.787 954.651, 282.636 941.483 C 284.662 939.989, 285.108 940.162, 291.303 944.851 C 306.905 956.660, 327.494 965.910, 348.756 970.662 C 359.117 972.978, 362.737 973.292, 379.500 973.330 C 395.402 973.365, 400.161 973.015, 408.688 971.180 C 458.079 960.551, 497.886 927.373, 516.314 881.475 C 524.525 861.022, 527.600 843.410, 526.696 822 C 526 805.506, 523.963 793.653, 519.565 780.500 C 512.270 758.684, 501.602 740.887, 486.201 724.842 C 471.035 709.041, 452.502 696.343, 434.441 689.378 L 427.383 686.657 427.353 670.578 C 427.318 651.774, 425.651 640.690, 420.370 624.162 C 410.661 593.778, 390.561 567.286, 364 549.868 C 339.245 533.634, 318.002 527.077, 288 526.408 C 275.070 526.120, 269.336 526.437, 261.500 527.873 M 804.073 603.720 C 799.891 604.522, 797.056 607.079, 795.999 611.002 C 794.545 616.403, 796.580 622.032, 800.657 623.890 C 803.809 625.326, 810.222 625.312, 813.405 623.861 C 815.853 622.746, 819 617.620, 819 614.748 C 819 611.733, 816.768 607.078, 814.661 605.697 C 812.004 603.957, 807.361 603.090, 804.073 603.720 M 993.326 604.044 C 987.964 605.105, 984.175 607.108, 980.814 610.661 C 977.239 614.439, 976 618.017, 976 624.565 L 976 630 972.500 630 L 969 630 969 637 L 969 644 972.500 644 L 976 644 976 669 L 976 694 987 694 L 998 694 998 669 L 998 644 1009 644 L 1020 644 1020 660.864 C 1020 681.737, 1020.947 687.550, 1024.942 691.188 C 1026.565 692.667, 1029.605 694.352, 1031.697 694.933 C 1035.896 696.099, 1047.993 696.351, 1052.875 695.375 L 1056 694.750 1056 687.875 L 1056 681 1053.065 681 C 1049.528 681, 1044.824 679.321, 1043.786 677.687 C 1043.370 677.034, 1043.024 669.188, 1043.015 660.250 L 1043 644 1050 644 L 1057 644 1057 637 L 1057 630 1050 630 L 1043 630 1043 621.500 L 1043 613 1031.500 613 L 1020 613 1020 621.500 L 1020 630 1008.869 630 L 997.738 630 998.339 626.250 C 999.130 621.311, 1002.085 619, 1007.611 619 L 1012 619 1012 611.607 C 1012 605.788, 1011.663 604.085, 1010.418 603.607 C 1008.268 602.782, 998.439 603.033, 993.326 604.044 M 849.929 610.303 C 843.587 612.102, 836.520 616.436, 833.672 620.272 C 828.153 627.707, 827.422 637.526, 831.750 646.071 C 835.261 653.003, 841.251 656.718, 856.676 661.534 C 871.516 666.166, 875.397 670.694, 869.545 676.545 C 864.370 681.721, 852.799 678.841, 849.302 671.507 L 847.630 668 836.815 668 L 826 668 826.010 671.250 C 826.024 675.907, 830.091 683.995, 834.260 687.655 C 840.661 693.276, 847.905 695.386, 861 695.447 C 874.729 695.510, 880.639 693.830, 887.294 687.972 C 893.235 682.743, 895.232 678.280, 895.186 670.334 C 895.105 656.305, 888.023 649.204, 868.795 643.876 C 859.401 641.273, 854.119 638.444, 852.960 635.394 C 851.588 631.786, 851.715 631.194, 854.455 628.455 C 859.356 623.553, 868.936 626.878, 870.506 634.027 L 871.159 637 882.659 637 L 894.159 637 893.471 633.750 C 891.305 623.523, 885.301 615.776, 876.546 611.912 C 870.417 609.207, 856.714 608.379, 849.929 610.303 M 570.077 651.238 C 562.145 673.382, 555.459 692.063, 555.220 692.750 C 554.889 693.705, 557.630 694, 566.828 694 L 578.869 694 582.093 683.500 L 585.317 673 597.991 673 L 610.665 673 613.953 683.500 L 617.241 694 629.602 694 L 641.962 694 638.982 685.750 C 637.343 681.212, 630.654 662.650, 624.117 644.500 L 612.231 611.500 598.366 611.238 L 584.500 610.976 570.077 651.238 M 674.457 629.534 C 671.914 630.474, 669.688 632.229, 668.457 634.264 L 666.500 637.500 666 633.500 L 665.500 629.500 654.250 629.217 L 643 628.934 643 661.467 L 643 694 654.500 694 L 666 694 666 674.212 C 666 655.680, 666.143 654.141, 668.250 649.962 C 671.105 644.301, 674.685 642.411, 679.525 644.008 C 685.796 646.078, 686 646.952, 686 671.723 L 686 694 697.562 694 L 709.125 694 708.812 668.750 C 708.514 644.607, 708.397 643.291, 706.154 638.736 C 702.680 631.681, 697.098 628.712, 686.592 628.332 C 681.223 628.138, 677.140 628.543, 674.457 629.534 M 734.882 629.381 C 721.777 634.064, 714.846 645.096, 714.704 661.500 C 714.532 681.362, 725.484 693.295, 744 693.418 C 753.661 693.482, 758.345 691.821, 761.626 687.165 L 764.209 683.500 763.601 689.931 C 762.877 697.586, 761.106 700.640, 756.201 702.689 C 749.302 705.572, 738 702.646, 738 697.977 C 738 696.127, 737.291 696, 727 696 C 714.719 696, 714.985 695.803, 717.081 703.355 C 718.663 709.050, 725.134 715.532, 731.686 717.984 C 748.313 724.205, 771.403 719.939, 779.724 709.108 C 785.572 701.498, 786 698.269, 786 661.818 L 786 629 775 629 L 764 629 763.983 632.750 L 763.966 636.500 761.956 633.362 C 760.506 631.100, 758.713 629.913, 755.530 629.112 C 749.678 627.638, 739.383 627.772, 734.882 629.381 M 918.465 629.963 C 910.349 632.622, 904.839 637.551, 900.792 645.771 C 897.767 651.917, 897.500 653.230, 897.500 662 C 897.500 670.788, 897.763 672.075, 900.824 678.295 C 906.469 689.761, 917.408 696, 931.866 696 C 953.101 696, 967 682.520, 967 661.924 C 967 648.426, 960.239 636.710, 949.386 631.400 C 941.778 627.678, 927.468 627.013, 918.465 629.963 M 796 661.500 L 796 694 807 694 L 818 694 818 661.500 L 818 629 807 629 L 796 629 796 661.500 M 594.323 644.500 L 591.242 655 598.228 655 C 604.366 655, 605.136 654.796, 604.568 653.316 C 604.212 652.390, 602.734 647.665, 601.282 642.816 C 599.831 637.967, 598.365 634, 598.024 634 C 597.684 634, 596.018 638.725, 594.323 644.500 M 746.309 644.067 C 740.064 645.944, 736.294 655.838, 738.113 665.573 C 739.229 671.548, 740.526 673.740, 744.314 676.050 C 750.665 679.922, 758.478 677.670, 761.681 671.044 C 763.999 666.247, 763.994 654.652, 761.672 650.259 C 758.675 644.591, 752.647 642.162, 746.309 644.067 M 929.500 643.744 C 923.549 645.119, 920.571 651.209, 920.571 662 C 920.571 674.667, 924.145 680, 932.634 680 C 936.070 680, 937.281 679.455, 939.373 676.969 C 942.392 673.380, 943.989 668.203, 943.989 662 C 943.989 650.022, 937.534 641.888, 929.500 643.744 M 1179.313 736.102 C 1171.788 738.279, 1169.303 748.457, 1174.923 754.077 C 1177.396 756.550, 1178.638 757, 1182.989 757 C 1189.162 757, 1191.484 755.899, 1193.490 752.020 C 1196.848 745.526, 1193.888 737.896, 1187.302 736.067 C 1185.211 735.486, 1183.275 735.049, 1183 735.096 C 1182.725 735.142, 1181.066 735.595, 1179.313 736.102 M 765 781.500 L 765 826 776.411 826 L 787.822 826 788.197 805.750 C 788.621 782.899, 789.508 779.411, 795.631 776.505 C 799.623 774.611, 802.995 775.302, 806.155 778.663 C 808.450 781.104, 808.506 781.634, 808.803 803.578 L 809.106 826 820.704 826 L 832.301 826 831.700 801.750 C 831.366 788.281, 830.583 775.722, 829.939 773.500 C 828.404 768.208, 822.498 762.679, 816.621 761.034 C 810.874 759.425, 799.641 760.100, 795.364 762.312 C 793.648 763.199, 791.296 765.405, 790.139 767.213 L 788.034 770.500 788.017 753.750 L 788 737 776.500 737 L 765 737 765 781.500 M 987 776.435 C 987 801.941, 987.377 816.864, 988.067 818.685 C 990.768 825.816, 998.368 828.836, 1010.371 827.551 L 1017 826.841 1017 818.813 C 1017 812.805, 1016.686 810.906, 1015.750 811.262 C 1015.063 811.523, 1013.487 811.361, 1012.250 810.901 L 1010 810.064 1010 773.532 L 1010 737 998.500 737 L 987 737 987 776.435 M 556 751.500 L 556 760 569.500 760 L 583 760 583 793 L 583 826 594 826 L 605 826 605 793 L 605 760 618.500 760 L 632 760 632 751.500 L 632 743 594 743 L 556 743 556 751.500 M 647.500 761.399 C 640.829 763.509, 637.471 765.682, 632.722 770.964 C 625.503 778.993, 622.594 790.878, 624.997 802.521 C 627.288 813.617, 632.438 820.398, 642 824.907 C 646.844 827.191, 648.752 827.497, 658 827.477 C 669.808 827.451, 674.617 825.909, 681.365 819.984 C 684.792 816.975, 690 808.561, 690 806.033 C 690 805.386, 685.985 805.002, 679.250 805.006 L 668.500 805.013 666.837 807.935 C 664.760 811.586, 659.516 813.257, 654.491 811.870 C 650.611 810.799, 648.360 808.049, 647.390 803.198 L 646.750 800 668.997 800 L 691.245 800 690.826 791.236 C 690.511 784.647, 689.811 781.240, 688.006 777.512 C 682.482 766.102, 672.139 759.942, 658.712 760.067 C 654.746 760.104, 649.700 760.703, 647.500 761.399 M 715.332 761.851 C 708.607 764.175, 703.496 768.149, 699.860 773.881 C 689.521 790.181, 693.235 813.343, 707.727 822.943 C 713.674 826.882, 720.658 828.378, 730.085 827.732 C 745.807 826.654, 756.198 818.507, 759.398 804.750 L 760.038 802 749.032 802 L 738.027 802 736.651 805.250 C 732.955 813.985, 723.529 814.790, 719.360 806.728 C 715.613 799.484, 716.796 782.335, 721.325 778.242 C 726.792 773.300, 733.769 775.209, 736.514 782.398 L 738.272 787 749.007 787 L 759.742 787 758.871 782.338 C 757.029 772.481, 749.599 764.443, 739.576 761.467 C 732.871 759.476, 721.694 759.653, 715.332 761.851 M 872.500 761.529 C 870.300 762.321, 868.404 762.977, 868.286 762.985 C 868.168 762.993, 866.931 764.679, 865.536 766.732 L 863 770.464 863 765.699 L 863 760.934 851.750 761.217 L 840.500 761.500 840.236 793.750 L 839.972 826 851.397 826 L 862.822 826 863.197 805.750 C 863.621 782.899, 864.508 779.411, 870.631 776.505 C 874.623 774.611, 877.995 775.302, 881.155 778.663 C 883.450 781.104, 883.506 781.634, 883.803 803.578 L 884.106 826 895.704 826 L 907.301 826 906.700 801.750 C 906.366 788.281, 905.583 775.722, 904.939 773.500 C 903.486 768.490, 897.653 762.812, 892.315 761.213 C 886.923 759.597, 877.443 759.748, 872.500 761.529 M 933.332 761.851 C 918.825 766.865, 911.184 779.434, 912.250 796.530 C 912.899 806.927, 915.575 813.060, 922.160 819.242 C 928.286 824.994, 936.786 828, 946.924 828 C 965.308 828, 978.049 817.900, 981.083 800.923 C 984.370 782.529, 975.130 766.107, 958.934 761.562 C 951.495 759.474, 939.830 759.606, 933.332 761.851 M 1039.465 761.963 C 1031.349 764.622, 1025.839 769.551, 1021.792 777.771 C 1018.767 783.917, 1018.500 785.230, 1018.500 794 C 1018.500 802.788, 1018.763 804.075, 1021.824 810.295 C 1027.469 821.761, 1038.408 828, 1052.866 828 C 1074.101 828, 1088 814.520, 1088 793.924 C 1088 780.426, 1081.239 768.710, 1070.386 763.400 C 1062.778 759.678, 1048.468 759.013, 1039.465 761.963 M 1110.882 761.381 C 1097.777 766.064, 1090.846 777.096, 1090.704 793.500 C 1090.532 813.362, 1101.484 825.295, 1120 825.418 C 1129.661 825.482, 1134.345 823.821, 1137.626 819.165 L 1140.209 815.500 1139.601 821.931 C 1138.877 829.586, 1137.106 832.640, 1132.201 834.689 C 1125.302 837.572, 1114 834.646, 1114 829.977 C 1114 828.127, 1113.291 828, 1103 828 C 1090.719 828, 1090.985 827.803, 1093.081 835.355 C 1094.663 841.050, 1101.134 847.532, 1107.686 849.984 C 1124.313 856.205, 1147.403 851.939, 1155.724 841.108 C 1161.572 833.498, 1162 830.269, 1162 793.818 L 1162 761 1151 761 L 1140 761 1139.983 764.750 L 1139.966 768.500 1137.956 765.362 C 1136.506 763.100, 1134.713 761.913, 1131.530 761.112 C 1125.678 759.638, 1115.383 759.772, 1110.882 761.381 M 1222.205 761.837 C 1215.591 764.193, 1210.442 768.255, 1206.264 774.415 C 1202.175 780.441, 1200.733 785.648, 1200.696 794.516 C 1200.636 808.790, 1207.114 820.099, 1218.221 825.111 C 1222.702 827.132, 1225.088 827.493, 1234 827.496 C 1242.844 827.499, 1245.288 827.137, 1249.500 825.201 C 1255.700 822.349, 1261.651 816.764, 1264.097 811.500 C 1267.134 804.966, 1267.179 804.999, 1255.250 805.006 L 1244.500 805.013 1242.837 807.935 C 1240.219 812.537, 1234.383 813.674, 1228.302 810.768 C 1226.360 809.840, 1223 803.637, 1223 800.980 C 1223 800.370, 1231.275 800, 1244.921 800 L 1266.841 800 1267.509 796.960 C 1269.166 789.417, 1265.206 776.721, 1258.989 769.640 C 1253.499 763.388, 1247.011 760.691, 1236.500 760.292 C 1229.560 760.029, 1226.288 760.383, 1222.205 761.837 M 1288.173 761.484 C 1277.489 764.818, 1272.488 771.270, 1272.518 781.680 C 1272.534 787.057, 1272.930 788.346, 1275.571 791.609 C 1279.284 796.197, 1283.081 798.229, 1293.654 801.286 C 1306.658 805.047, 1310.259 808.818, 1304.469 812.613 C 1300.959 814.912, 1296.133 813.434, 1293.500 809.253 L 1291.500 806.077 1280.298 806.039 L 1269.096 806 1270.434 810.448 C 1272.902 818.648, 1278.510 823.639, 1288.526 826.551 C 1296.258 828.798, 1310.571 828.173, 1317.013 825.307 C 1326.354 821.150, 1330.882 813.045, 1329.124 803.632 C 1327.448 794.665, 1322.906 790.907, 1308.474 786.546 C 1303.538 785.055, 1298.487 783.187, 1297.250 782.394 C 1294.394 780.566, 1294.277 776.457, 1297.038 774.980 C 1299.893 773.452, 1302.759 774.633, 1304.537 778.071 L 1306.051 781 1317.134 781 L 1328.217 781 1327.540 778.250 C 1326.486 773.966, 1322.273 767.330, 1319.246 765.184 C 1312.266 760.234, 1297.725 758.503, 1288.173 761.484 M 1172 793.467 L 1172 826 1183.514 826 L 1195.028 826 1194.764 793.750 L 1194.500 761.500 1183.250 761.217 L 1172 760.934 1172 793.467 M 654.500 775.945 C 651.868 777.023, 649.387 779.852, 648.094 783.252 L 647.050 786 657.592 786 C 668.069 786, 668.130 785.986, 667.423 783.750 C 666.155 779.741, 663.934 777.173, 660.785 776.075 C 657.258 774.845, 657.191 774.844, 654.500 775.945 M 944.327 775.721 C 934.510 777.518, 931.464 801.322, 940.003 809.503 C 945.128 814.413, 953.675 812.427, 956.488 805.672 C 958.696 800.372, 959.264 793.590, 958.008 787.536 C 956.212 778.889, 951.107 774.480, 944.327 775.721 M 1050.500 775.744 C 1044.549 777.119, 1041.571 783.209, 1041.571 794 C 1041.571 806.667, 1045.145 812, 1053.634 812 C 1057.070 812, 1058.281 811.455, 1060.373 808.969 C 1063.392 805.380, 1064.989 800.203, 1064.989 794 C 1064.989 782.022, 1058.534 773.888, 1050.500 775.744 M 1122.309 776.067 C 1116.064 777.944, 1112.294 787.838, 1114.113 797.573 C 1115.229 803.548, 1116.526 805.740, 1120.314 808.050 C 1126.665 811.922, 1134.478 809.670, 1137.681 803.044 C 1139.999 798.247, 1139.994 786.652, 1137.672 782.259 C 1134.675 776.591, 1128.647 774.162, 1122.309 776.067 M 1230.500 775.945 C 1227.692 777.095, 1225.275 780.022, 1224.470 783.250 L 1223.783 786 1233.892 786 C 1240.283 786, 1244 785.614, 1244 784.950 C 1244 782.224, 1240.538 777.705, 1237.466 776.421 C 1233.643 774.824, 1233.298 774.800, 1230.500 775.945 M 635.419 890.076 C 630.393 891.534, 628.500 894.437, 628.500 900.687 C 628.500 905.651, 628.818 906.448, 631.893 909.196 C 634.899 911.882, 635.809 912.169, 639.860 911.712 C 646.282 910.988, 649 907.681, 649 900.590 C 649 896.352, 648.509 894.763, 646.548 892.646 C 645.199 891.191, 643.436 890, 642.630 890 C 641.823 890, 640.564 889.816, 639.832 889.591 C 639.099 889.366, 637.113 889.585, 635.419 890.076 M 766.395 890.407 C 760.248 893.128, 761.277 899.926, 768.185 902.228 C 772.729 903.742, 774.386 906.531, 771.418 907.670 C 770.283 908.106, 769.086 907.589, 767.934 906.167 C 765.789 903.518, 761.993 903.251, 762.015 905.750 C 762.067 911.680, 771.854 914.237, 776.545 909.545 C 780.869 905.222, 779.297 900.996, 772.500 898.670 C 768.123 897.172, 766.396 894, 769.958 894 C 771.116 894, 772.322 894.675, 772.638 895.500 C 773.496 897.735, 778 897.445, 778 895.155 C 778 890.860, 771.438 888.175, 766.395 890.407 M 787 890.331 C 780 892.669, 778.105 902.523, 783.458 908.746 C 785.453 911.066, 786.612 911.500, 790.808 911.500 C 796.613 911.500, 799.320 909.590, 801.082 904.251 C 804.139 894.990, 796.286 887.228, 787 890.331 M 938.748 890.163 C 935.741 891.261, 934.413 894.527, 935.391 898.422 C 935.814 900.107, 937.141 901.212, 939.750 902.053 C 944.986 903.739, 946.311 904.920, 944.890 906.633 C 943.275 908.578, 941.220 908.325, 939.768 906 C 938.118 903.358, 934 903.306, 934 905.927 C 934 908.656, 938.681 912, 942.500 912 C 946.357 912, 951 908.647, 951 905.862 C 951 902.348, 949.134 900.217, 944.511 898.451 C 939.606 896.578, 938.441 894, 942.500 894 C 944.056 894, 945 894.567, 945 895.500 C 945 896.500, 946 897, 948 897 C 949.650 897, 951 896.796, 951 896.547 C 951 894.390, 948.163 890.904, 945.713 890.050 C 942.243 888.840, 942.376 888.838, 938.748 890.163 M 959.524 890.085 C 955.059 891.380, 953.048 894.661, 953.022 900.694 C 952.992 907.670, 955.741 910.991, 962.140 911.712 C 966.145 912.164, 967.112 911.872, 969.918 909.364 C 975.248 904.601, 975.181 895.036, 969.795 891.671 C 966.536 889.636, 962.970 889.085, 959.524 890.085 M 1050.524 890.085 C 1046.059 891.380, 1044.048 894.661, 1044.022 900.694 C 1043.992 907.670, 1046.741 910.991, 1053.140 911.712 C 1057.145 912.164, 1058.112 911.872, 1060.918 909.364 C 1066.248 904.601, 1066.181 895.036, 1060.795 891.671 C 1057.536 889.636, 1053.970 889.085, 1050.524 890.085 M 1094.395 890.407 C 1088.248 893.128, 1089.277 899.926, 1096.185 902.228 C 1100.729 903.742, 1102.386 906.531, 1099.418 907.670 C 1098.283 908.106, 1097.086 907.589, 1095.934 906.167 C 1093.789 903.518, 1089.993 903.251, 1090.015 905.750 C 1090.067 911.680, 1099.854 914.237, 1104.545 909.545 C 1108.869 905.222, 1107.297 900.996, 1100.500 898.670 C 1096.123 897.172, 1094.396 894, 1097.958 894 C 1099.116 894, 1100.322 894.675, 1100.638 895.500 C 1101.496 897.735, 1106 897.445, 1106 895.155 C 1106 890.860, 1099.438 888.175, 1094.395 890.407 M 574 900.500 L 574 911 576.500 911 L 579 911 579 900.500 L 579 890 576.500 890 L 574 890 574 900.500 M 583 900.500 C 583 910.979, 583.005 911, 585.452 911 C 587.762 911, 587.922 910.637, 588.202 904.750 L 588.500 898.500 591.764 904.750 C 594.818 910.597, 595.254 911, 598.514 911 L 602 911 602 900.500 C 602 890.019, 601.996 890, 599.546 890 C 597.217 890, 597.076 890.339, 596.796 896.612 L 596.500 903.224 593 896.620 C 589.788 890.560, 589.233 890.016, 586.250 890.008 L 583 890 583 900.500 M 606 900.500 C 606 910.979, 606.005 911, 608.452 911 C 610.762 911, 610.922 910.637, 611.202 904.750 L 611.500 898.500 614.764 904.750 C 617.818 910.597, 618.254 911, 621.514 911 L 625 911 625 900.500 C 625 890.019, 624.996 890, 622.546 890 C 620.217 890, 620.076 890.339, 619.796 896.612 L 619.500 903.224 616 896.620 C 612.788 890.560, 612.233 890.016, 609.250 890.008 L 606 890 606 900.500 M 650 890.425 C 650 890.659, 651.628 895.384, 653.619 900.925 C 657.170 910.813, 657.296 911, 660.408 911 C 663.500 911, 663.663 910.769, 666.922 901.750 C 668.761 896.663, 670.478 891.938, 670.739 891.250 C 671.052 890.426, 670.213 890, 668.274 890 C 665.458 890, 665.232 890.344, 662.881 898.250 L 660.427 906.500 658.027 898.250 C 655.755 890.440, 655.477 890, 652.813 890 C 651.266 890, 650 890.191, 650 890.425 M 675.521 891.186 C 675.266 891.909, 673.694 896.243, 672.028 900.818 C 670.363 905.393, 669 909.556, 669 910.068 C 669 910.581, 670.081 911, 671.402 911 C 673.172 911, 674.080 910.211, 674.850 908 C 675.694 905.580, 676.467 905, 678.850 905 C 681.234 905, 682.006 905.580, 682.850 908 C 683.644 910.276, 684.511 911, 686.448 911 C 687.852 911, 689 910.663, 688.999 910.250 C 688.999 909.837, 687.475 905.225, 685.612 900 C 682.387 890.950, 682.078 890.485, 679.106 890.186 C 677.193 889.994, 675.806 890.380, 675.521 891.186 M 687 892 C 687 893.619, 687.667 894, 690.500 894 L 694 894 694 902.500 C 694 910.900, 694.029 911, 696.500 911 C 698.971 911, 699 910.900, 699 902.500 L 699 894 702.500 894 C 705.333 894, 706 893.619, 706 892 C 706 890.140, 705.333 890, 696.500 890 C 687.667 890, 687 890.140, 687 892 M 708 900.500 L 708 911 710.500 911 L 713 911 713 900.500 L 713 890 710.500 890 L 708 890 708 900.500 M 716.019 891.250 C 716.029 891.938, 717.501 896.550, 719.288 901.500 C 722.499 910.389, 722.580 910.500, 725.881 910.500 C 729.191 910.500, 729.254 910.412, 732.611 901.127 C 734.475 895.971, 736 891.359, 736 890.877 C 736 890.395, 734.912 890, 733.582 890 C 731.481 890, 730.872 890.888, 728.948 896.750 C 727.729 900.462, 726.506 903.895, 726.229 904.377 C 725.952 904.859, 724.643 901.821, 723.321 897.627 C 721.183 890.845, 720.644 890, 718.458 890 C 717.106 890, 716.008 890.563, 716.019 891.250 M 738 900.500 L 738 911 746 911 C 753.333 911, 754 910.833, 754 909 C 754 907.242, 753.333 907, 748.500 907 C 743.667 907, 743 906.758, 743 905 C 743 903.267, 743.667 903, 748 903 C 752.333 903, 753 902.733, 753 901 C 753 899.267, 752.333 899, 748 899 C 743.333 899, 743 898.833, 743 896.500 C 743 894.136, 743.300 894, 748.500 894 C 753.333 894, 754 893.758, 754 892 C 754 890.167, 753.333 890, 746 890 L 738 890 738 900.500 M 805 900.500 L 805 911 807.500 911 C 809.750 911, 810 910.600, 810 907 L 810 903 814.500 903 C 818.333 903, 819 902.704, 819 901 C 819 899.296, 818.333 899, 814.500 899 C 810.367 899, 810 898.796, 810 896.500 C 810 894.167, 810.333 894, 815 894 C 819.333 894, 820 893.733, 820 892 C 820 890.178, 819.333 890, 812.500 890 L 805 890 805 900.500 M 821 891.969 C 821 893.623, 821.649 894, 824.500 894 L 828 894 828 902.500 C 828 910.900, 828.029 911, 830.500 911 C 832.968 911, 833 910.893, 833 902.605 L 833 894.210 836.893 893.839 L 840.786 893.468 841.927 898.564 C 844.636 910.670, 844.807 911, 848.355 911 C 851.596 911, 851.624 910.957, 853.134 903.750 L 854.652 896.500 855.885 902.500 C 857.685 911.259, 857.624 911.163, 861.197 910.814 C 864.377 910.503, 864.434 910.401, 867.127 900.250 L 869.846 890 867.083 890 C 864.453 890, 864.257 890.338, 862.987 897.067 C 861.611 904.361, 860.762 904.469, 859.575 897.500 C 858.365 890.400, 858.099 890, 854.593 890 C 851.334 890, 851.316 890.028, 849.999 897.005 C 849.272 900.858, 848.465 903.798, 848.205 903.538 C 847.945 903.279, 847.227 900.239, 846.610 896.783 L 845.487 890.500 833.244 890.219 C 821.513 889.950, 821 890.023, 821 891.969 M 872.223 898.250 C 867.403 911.657, 867.492 911, 870.485 911 C 872.496 911, 873.347 910.304, 874.150 908 C 874.994 905.580, 875.766 905, 878.150 905 C 880.533 905, 881.306 905.580, 882.150 908 C 882.978 910.374, 883.782 911, 886.008 911 L 888.820 911 885.364 901.329 C 881.113 889.437, 881.477 890, 878.036 890 C 875.377 890, 874.994 890.544, 872.223 898.250 M 890 900.500 L 890 911 893 911 C 895.842 911, 896 910.786, 896 906.930 C 896 903.282, 896.233 902.894, 898.250 903.180 C 899.915 903.417, 900.741 904.475, 901.426 907.250 C 902.219 910.458, 902.753 911, 905.122 911 L 907.892 911 906.370 905.876 C 905.285 902.219, 905.157 900.443, 905.924 899.676 C 906.516 899.084, 907 897.131, 907 895.335 C 907 891.078, 904.891 890, 896.566 890 L 890 890 890 900.500 M 910 900.500 L 910 911 918 911 C 925.333 911, 926 910.833, 926 909 C 926 907.242, 925.333 907, 920.500 907 C 915.667 907, 915 906.758, 915 905 C 915 903.267, 915.667 903, 920 903 C 924.333 903, 925 902.733, 925 901 C 925 899.267, 924.333 899, 920 899 C 915.333 899, 915 898.833, 915 896.500 C 915 894.136, 915.300 894, 920.500 894 C 925.333 894, 926 893.758, 926 892 C 926 890.167, 925.333 890, 918 890 L 910 890 910 900.500 M 977 900.500 L 977 911 985 911 C 992.333 911, 993 910.833, 993 909 C 993 907.242, 992.333 907, 987.500 907 L 982 907 982 898.500 C 982 890.100, 981.971 890, 979.500 890 L 977 890 977 900.500 M 995 898.545 C 995 906.285, 995.231 907.322, 997.455 909.545 C 999.261 911.352, 1000.990 912, 1004 912 C 1007.010 912, 1008.739 911.352, 1010.545 909.545 C 1012.769 907.322, 1013 906.285, 1013 898.545 C 1013 890.134, 1012.961 890, 1010.540 890 C 1008.153 890, 1008.072 890.238, 1007.790 898.145 C 1007.560 904.606, 1007.138 906.517, 1005.750 907.389 C 1004.477 908.190, 1003.523 908.190, 1002.250 907.389 C 1000.862 906.517, 1000.440 904.606, 1000.210 898.145 C 999.928 890.238, 999.847 890, 997.460 890 C 995.039 890, 995 890.134, 995 898.545 M 1015 892 C 1015 893.619, 1015.667 894, 1018.500 894 L 1022 894 1022 902.500 C 1022 910.900, 1022.029 911, 1024.500 911 C 1026.971 911, 1027 910.900, 1027 902.500 L 1027 894 1030.500 894 C 1033.333 894, 1034 893.619, 1034 892 C 1034 890.140, 1033.333 890, 1024.500 890 C 1015.667 890, 1015 890.140, 1015 892 M 1035 900.500 L 1035 911 1038 911 L 1041 911 1041 900.500 L 1041 890 1038 890 L 1035 890 1035 900.500 M 1068 900.437 L 1068 911 1070.500 911 C 1072.898 911, 1073.001 910.746, 1073.015 904.750 L 1073.031 898.500 1076.573 904.750 C 1079.844 910.520, 1080.380 911, 1083.558 911 L 1087 911 1087 900.500 L 1087 890 1084.500 890 C 1082.065 890, 1082 890.187, 1081.984 897.250 L 1081.969 904.500 1078.167 897.500 C 1074.817 891.330, 1073.988 890.463, 1071.183 890.187 L 1068 889.873 1068 900.437 M 635.203 895.256 C 632.395 898.639, 633.029 904.984, 636.400 907.235 C 641.202 910.441, 646.161 901.906, 642.965 895.934 C 641.777 893.715, 636.839 893.284, 635.203 895.256 M 787.200 895.200 C 785.296 897.104, 785.709 904.427, 787.829 906.345 C 791.784 909.925, 796 906.842, 796 900.371 C 796 895.750, 794.627 894, 791 894 C 789.570 894, 787.860 894.540, 787.200 895.200 M 896 896.500 C 896 898.782, 896.366 899.091, 898.750 898.816 C 900.728 898.589, 901.500 897.938, 901.500 896.500 C 901.500 895.062, 900.728 894.411, 898.750 894.184 C 896.366 893.909, 896 894.218, 896 896.500 M 959.066 895.876 C 957.371 899.044, 957.811 903.811, 960 906 C 963.315 909.315, 966.407 908.328, 968.020 903.440 C 969.624 898.580, 967.601 894.608, 963.309 894.192 C 960.959 893.963, 959.856 894.401, 959.066 895.876 M 1050.066 895.876 C 1048.371 899.044, 1048.811 903.811, 1051 906 C 1054.315 909.315, 1057.407 908.328, 1059.020 903.440 C 1060.624 898.580, 1058.601 894.608, 1054.309 894.192 C 1051.959 893.963, 1050.856 894.401, 1050.066 895.876" stroke="none" fill="#3584e4" fill-rule="evenodd"/>
</svg>